<?xml version="1.0" standalone="no"?>
<!DOCTYPE svg PUBLIC "-//W3C//DTD SVG 1.1//EN" "http://www.w3.org/Graphics/SVG/1.1/DTD/svg11.dtd" >
<svg xmlns="http://www.w3.org/2000/svg">
<metadata></metadata>
<defs>
<font id="lcdmono2light" horiz-adv-x="490" >
<font-face units-per-em="1000" ascent="800" descent="-200" />
<missing-glyph horiz-adv-x="500" />
<glyph unicode="&#xd;" />
<glyph unicode=" " />
<glyph unicode="!" d="M221 30l-32 -28l-24 28l32 28zM233 115l-32 -28l-24 28l34 242l32 28l24 -28zM279 443l-32 -28l-24 28l46 327l32 28l24 -28z" />
<glyph unicode="&#x22;" d="M228 615l-30 -26l-23 26l13 97l31 26l23 -26zM302 615l-31 -26l-23 26l14 97l30 26l23 -26z" />
<glyph unicode="$" d="M40 70l-31 -27l-24 27l8 57l31 28l24 -28zM364 28l-32 -28h-285l-24 28l31 28h101l36 -43l48 43h101zM413 70l-32 -27l-24 27l40 287l32 28l24 -28zM416 400l-31 -28h-101l-24 28l32 28h100zM230 400l-32 -28h-100l-24 28l31 28h101zM94 443l-32 -28l-24 28l41 287l31 27 l24 -27zM469 772l-32 -28h-101l-36 43l-48 -43h-101l-24 28l32 28h286zM497 673l-31 -28l-24 28l8 57l31 27l24 -27zM279 443l-32 -28l-24 28l41 287l31 27l24 -27zM226 70l-31 -27l-24 27l40 287l32 28l24 -28z" />
<glyph unicode="'" d="M265 615l-31 -26l-22 26l13 97l31 26l22 -26z" />
<glyph unicode="(" d="M372 772l-32 -28h-57l-23 28l31 28h57zM226 443l-37 -32h-23l45 319l32 27l23 -27zM174 70l-32 -27l-24 27l45 319h24l27 -32zM267 28l-32 -28h-56l-24 28l32 28h56z" />
<glyph unicode=")" d="M335 772l-32 -28h-56l-24 28l32 28h56zM327 411h-24l-27 32l40 287l32 27l24 -27zM279 70l-32 -27l-23 27l40 287l37 32h23zM230 28l-31 -28h-57l-24 28l32 28h57z" />
<glyph unicode="*" d="M236 411h-38l-18 21l5 38h38l19 -21zM319 432l-24 -21h-38l5 38l24 21h38zM305 331h-38l-19 21l6 38h38l18 -21zM228 352l-24 -21h-38l5 38l24 21h38z" />
<glyph unicode="+" d="M278 441l-31 -26l-23 26l10 73l31 27l23 -27zM381 400l-30 -27h-68l-23 27l30 27h68zM230 400l-30 -27h-69l-22 27l30 27h68zM256 286l-31 -27l-23 27l10 73l31 26l23 -26z" />
<glyph unicode="," d="M275 30l-64 -56l12 84l32 28l24 -28z" />
<glyph unicode="." d="M271 30l-32 -28l-24 28l4 28l32 28l24 -28z" />
<glyph unicode="/" d="M509 755l-226 -345h-26l10 71l209 319h39zM223 319l-209 -319h-39l6 45l226 344h26z" />
<glyph unicode="0" d="M41 70l-32 -27l-24 27l41 287l31 28l24 -28zM93 443l-31 -28l-24 28l40 287l32 27l24 -27zM468 772l-32 -28h-285l-24 28l31 28h286zM464 443l-31 -28l-24 28l40 287l32 27l24 -27zM412 70l-32 -27l-24 27l41 287l31 28l24 -28zM363 28l-31 -28h-286l-24 28l32 28h285z " />
<glyph unicode="1" d="M278 441l-31 -26l-23 26l47 330l30 27l23 -27zM230 660l-39 -34l-25 29l4 27l72 64zM220 29l-31 -27l-22 27l46 330l30 26l23 -26z" />
<glyph unicode="2" d="M130 673l-32 -28l-24 28l8 57l32 27l24 -27zM472 772l-32 -28h-285l-24 28l31 28h286zM468 443l-32 -28l-23 28l40 287l32 27l23 -27zM421 400l-32 -28h-287l-24 28l32 28h287zM45 70l-63 -55l48 345l32 27l24 -27zM392 0h-398l64 56h287z" />
<glyph unicode="3" d="M461 443l-32 -28l-23 28l40 287l32 27l23 -27zM465 772l-32 -28h-316l-24 28l32 28h316zM412 400l-31 -28h-257l-24 28l32 28h257zM409 70l-32 -27l-24 27l41 287l31 28l24 -28zM360 28l-32 -28h-316l-23 28l31 28h316z" />
<glyph unicode="4" d="M435 443l-31 -28l-24 28l46 327l31 28l24 -28zM64 443l-31 -28l-24 28l40 287l32 27l24 -27zM387 400l-32 -28h-287l-24 28l32 28h287zM377 30l-31 -28l-24 28l46 327l31 28l24 -28z" />
<glyph unicode="5" d="M503 800l-64 -56h-287l-47 56h398zM96 443l-35 -32h-26l53 374l48 -58zM419 400l-32 -28h-287l-24 28l32 28h287zM415 70l-32 -27l-23 27l40 287l32 28l23 -28zM365 28l-32 -28h-285l-24 28l32 28h285zM43 70l-32 -27l-24 27l8 57l32 28l24 -28z" />
<glyph unicode="6" d="M486 772l-31 -28h-286l-24 28l32 28h285zM112 443l-37 -32h-23l44 319l32 27l24 -27zM59 70l-31 -27l-24 27l45 319h23l28 -32zM382 28l-32 -28h-286l-24 28l32 28h286zM430 70l-31 -27l-24 27l40 287l32 28l24 -28zM434 400l-32 -28h-287l-23 28l31 28h287z" />
<glyph unicode="7" d="M492 772l-32 -28h-327l-24 28l31 28h328zM435 606l-129 -196h-26l10 71l159 242h2zM246 319l-208 -319h-40l6 45l226 344h26z" />
<glyph unicode="8" d="M468 772l-32 -28h-285l-24 28l31 28h286zM93 443l-31 -28l-24 28l40 287l32 27l24 -27zM41 70l-32 -27l-24 27l41 287l31 28l24 -28zM363 28l-31 -28h-286l-24 28l32 28h285zM412 70l-32 -27l-24 27l41 287l31 28l24 -28zM464 443l-31 -28l-24 28l40 287l32 27l24 -27z M416 400l-32 -28h-287l-24 28l32 28h287z" />
<glyph unicode="9" d="M345 28l-32 -28h-285l-24 28l31 28h286zM394 70l-32 -27l-24 27l40 287l37 32h23zM441 411h-23l-28 32l41 287l31 27l24 -27zM450 772l-32 -28h-286l-24 28l32 28h286zM75 443l-32 -28l-24 28l41 287l31 27l24 -27zM398 400l-31 -28h-287l-24 28l32 28h287z" />
<glyph unicode=":" d="M290 298l-32 -27l-24 27l4 28l32 28l24 -28zM252 30l-32 -28l-24 28l4 28l32 28l24 -28z" />
<glyph unicode=";" d="M294 298l-32 -27l-24 27l4 28l32 28l24 -28zM256 30l-64 -56l12 84l32 28l24 -28z" />
<glyph unicode="&#x3c;" d="M320 606l-128 -196h-26l10 71l159 242h2zM246 77h-2l-91 242l10 71h26l73 -196z" />
<glyph unicode="=" d="M442 400l-32 -28h-287l-24 28l32 28h287zM389 28l-31 -28h-286l-24 28l32 28h286z" />
<glyph unicode="&#x3e;" d="M327 410h-26l-73 196l16 117h2l91 -242zM314 319l-159 -242h-2l17 117l128 196h26z" />
<glyph unicode="?" d="M397 772l-31 -28h-286l-24 28l32 28h285zM394 443l-32 -28l-24 28l40 287l32 27l24 -27zM345 400l-32 -28h-100l-24 28l31 28h101zM161 115l-31 -28l-24 28l34 242l32 28l24 -28zM149 30l-31 -28l-24 28l32 28z" />
<glyph unicode="A" d="M36 30l-31 -28l-24 28l50 359h24l27 -32zM96 443l-37 -32h-25l45 317l33 29l24 -27zM471 772l-31 -28h-286l-24 28l32 28h285zM464 411h-24l-28 32l40 287l33 28l24 -29zM411 30l-32 -28l-24 28l46 327l37 32h23zM419 400l-32 -28h-286l-24 28l31 28h287z" />
<glyph unicode="B" d="M44 70l-63 -55l53 374h23l28 -32zM97 443l-37 -32h-23l52 374l48 -55zM472 772l-31 -28h-287l-48 56h343zM469 443l-32 -28l-24 28l41 287l31 27l24 -27zM420 400l-32 -28h-286l-24 28l31 28h287zM416 70l-31 -27l-24 27l40 287l32 28l24 -28zM368 28l-32 -28h-342l63 56 h287z" />
<glyph unicode="C" d="M497 673l-32 -28l-24 28l8 57l32 27l24 -27zM468 772l-32 -28h-285l-24 28l31 28h286zM93 443l-36 -32h-24l45 319l32 27l24 -27zM41 70l-32 -27l-24 27l45 319h24l27 -32zM363 28l-31 -28h-286l-24 28l32 28h285zM412 70l-32 -27l-24 27l8 57l32 28l24 -28z" />
<glyph unicode="D" d="M44 70l-63 -55l53 374h23l28 -32zM97 443l-37 -32h-24l53 374l48 -55zM472 772l-31 -28h-287l-48 56h343zM464 411h-23l-28 32l41 287l31 27l24 -27zM416 70l-31 -27l-24 27l40 287l37 32h23zM368 28l-32 -28h-342l63 56h287z" />
<glyph unicode="E" d="M486 772l-31 -28h-286l-24 28l32 28h285zM112 443l-37 -32h-23l44 319l32 27l24 -27zM373 400l-32 -28h-226l-23 28l31 28h226zM59 70l-31 -27l-24 27l45 319h23l28 -32zM382 28l-32 -28h-286l-24 28l32 28h286z" />
<glyph unicode="F" d="M489 772l-31 -28h-286l-24 28l32 28h285zM115 443l-37 -32h-23l44 319l32 27l24 -27zM376 400l-32 -28h-226l-23 28l31 28h226zM56 28l-31 -28l-24 28l51 361h23l28 -32z" />
<glyph unicode="G" d="M486 772l-31 -28h-286l-24 28l32 28h285zM112 443l-37 -32h-23l44 319l32 27l24 -27zM59 70l-31 -27l-24 27l45 319h23l28 -32zM382 28l-32 -28h-286l-24 28l32 28h286zM430 70l-31 -27l-24 27l40 287l63 56zM466 428l-64 -56h-101l-23 28l31 28h157z" />
<glyph unicode="H" d="M460 411h-24l-27 32l46 327l31 28l24 -28zM93 443l-36 -32h-24l51 359l31 28l24 -28zM416 400l-32 -28h-287l-24 28l32 28h287zM406 30l-31 -28l-24 28l46 327l36 32h24zM35 30l-31 -28l-24 28l50 359h24l27 -32z" />
<glyph unicode="I" d="M279 443l-32 -28l-24 28l46 327l32 28l24 -28zM221 30l-32 -28l-24 28l46 327l32 28l24 -28z" />
<glyph unicode="J" d="M457 411h-23l-28 32l47 329l31 28l24 -28zM410 70l-32 -27l-24 27l40 287l37 32h23zM360 28l-32 -28h-286l-24 28l32 28h286zM37 70l-31 -27l-24 27l8 57l31 28l24 -28z" />
<glyph unicode="K" d="M506 755l-226 -344h-32l-17 19l242 370h39zM91 443l-36 -32h-24l51 359l31 28l24 -28zM227 400l-31 -28h-101l-24 28l32 28h101zM400 0h-40l-138 370l23 19h32l129 -344zM33 30l-32 -28l-23 28l50 359h24l27 -32z" />
<glyph unicode="L" d="M164 443l-37 -32h-23l50 359l32 28l24 -28zM112 70l-32 -27l-24 27l45 319h23l28 -32zM434 28l-32 -28h-285l-24 28l31 28h286z" />
<glyph unicode="M" d="M461 411h-24l-27 32l46 329l32 28l24 -28zM411 607l-128 -196h-27l10 71l160 243h2zM235 411h-26l-73 196l16 118h2l91 -243zM92 443l-36 -32h-24l51 361l32 28l24 -28zM407 28l-32 -28l-24 28l47 329l36 32h24zM34 28l-32 -28l-24 28l51 361h24l27 -32z" />
<glyph unicode="N" d="M35 30l-31 -28l-24 28l50 359h24l27 -32zM93 443l-36 -32h-24l51 359l31 28l24 -28zM388 449h-41l-200 233l6 41h37l204 -237zM460 411h-24l-27 32l46 327l31 28l24 -28zM406 30l-31 -28l-24 28l46 327l36 32h24z" />
<glyph unicode="O" d="M41 70l-32 -27l-24 27l45 319h24l27 -32zM93 443l-36 -32h-24l45 319l32 27l24 -27zM468 772l-32 -28h-285l-24 28l31 28h286zM460 411h-24l-27 32l40 287l32 27l24 -27zM412 70l-32 -27l-24 27l41 287l36 32h24zM363 28l-31 -28h-286l-24 28l32 28h285z" />
<glyph unicode="P" d="M468 443l-31 -28l-24 28l40 287l32 27l24 -27zM472 772l-32 -28h-287l-47 56h342zM96 443l-37 -32h-23l53 374l47 -55zM420 400l-32 -28h-287l-24 28l32 28h287zM37 30l-32 -28l-24 28l51 359h23l28 -32z" />
<glyph unicode="Q" d="M41 70l-32 -27l-24 27l45 319h24l27 -32zM93 443l-36 -32h-24l45 319l32 27l24 -27zM468 772l-32 -28h-285l-24 28l31 28h286zM460 411h-24l-27 32l40 287l32 27l24 -27zM412 70l-32 -27l-24 27l41 287l36 32h24zM363 28l-31 -28h-286l-24 28l32 28h285zM336 91l-70 133 l18 127l68 -149z" />
<glyph unicode="R" d="M468 443l-31 -28l-24 28l40 287l32 27l24 -27zM472 772l-32 -28h-287l-47 56h342zM96 443l-37 -32h-23l53 374l47 -55zM420 400l-32 -28h-287l-24 28l32 28h287zM406 0h-41l-266 310l5 41h38l269 -313zM37 30l-32 -28l-24 28l51 359h23l28 -32z" />
<glyph unicode="S" d="M497 673l-31 -28l-24 28l8 57l31 27l24 -27zM469 772l-32 -28h-286l-24 28l32 28h286zM94 443l-32 -28l-24 28l41 287l31 27l24 -27zM416 400l-31 -28h-287l-24 28l31 28h287zM413 70l-32 -27l-24 27l40 287l32 28l24 -28zM363 28l-32 -28h-286l-24 28l32 28h286zM40 70 l-31 -27l-24 27l8 57l31 28l24 -28z" />
<glyph unicode="T" d="M446 772l-32 -28h-131l-36 43l-48 -43h-131l-24 28l32 28h346zM226 443l-32 -28l-24 28l41 287l31 27l24 -27zM168 30l-32 -28l-24 28l46 327l32 28l24 -28z" />
<glyph unicode="U" d="M90 443l-36 -32h-24l51 359l32 28l23 -28zM38 70l-32 -27l-23 27l44 319h24l27 -32zM360 28l-31 -28h-286l-24 28l32 28h286zM409 70l-32 -27l-23 27l40 287l37 32h23zM457 411h-24l-27 32l46 327l32 28l23 -28z" />
<glyph unicode="V" d="M438 411h-38l-13 31l46 328l32 28l24 -28zM72 442l-22 -31h-38l50 359l32 28l24 -28zM429 345l-226 -345h-26l10 71l209 318h39zM156 0h-26l-129 345l7 44h39l119 -318z" />
<glyph unicode="W" d="M461 411h-24l-27 32l46 329l32 28l24 -28zM93 443l-37 -32h-24l51 361l32 28l24 -28zM407 28l-32 -28l-24 28l47 329l36 32h24zM337 75h-3l-90 243l9 71h27l73 -196zM222 318l-159 -243h-2l16 118l129 196h26zM34 28l-32 -28l-24 28l51 361h24l27 -32z" />
<glyph unicode="X" d="M509 755l-226 -345h-26l10 71l209 319h39zM236 410h-26l-129 345l6 45h40l119 -319zM403 0h-40l-119 319l10 70h26l129 -344zM223 319l-209 -319h-39l6 45l226 344h26z" />
<glyph unicode="Y" d="M456 755l-226 -346h-26l10 71l209 320h40zM183 409h-26l-130 346l7 45h39l120 -320zM167 28l-31 -28l-24 28l46 328l32 28l24 -28z" />
<glyph unicode="Z" d="M469 772l-32 -28h-286l-24 28l32 28h286zM411 606l-128 -196h-26l10 71l158 242h3zM223 319l-158 -242h-3l17 117l128 195h26zM364 28l-32 -28h-287l-24 28l32 28h287z" />
<glyph unicode="[" d="M399 777l-37 -33h-101l-48 56h189zM204 443l-37 -32h-23l52 374l48 -55zM152 70l-64 -55l53 374h23l28 -32zM289 0h-188l63 56h101l28 -33z" />
<glyph unicode="\" d="M236 410h-26l-129 345l6 45h40l119 -319zM403 0h-40l-119 319l10 70h26l129 -344z" />
<glyph unicode="]" d="M389 800l-63 -56h-101l-28 33l4 23h188zM349 411h-23l-28 32l40 287l64 55zM294 15l-48 55l40 287l37 32h23zM277 0h-189l3 23l37 33h101z" />
<glyph unicode="_" d="M416 28l-32 -28h-286l-24 28l32 28h286z" />
<glyph unicode="a" d="M36 30l-31 -28l-24 28l50 359h24l27 -32zM96 443l-37 -32h-25l45 317l33 29l24 -27zM471 772l-31 -28h-286l-24 28l32 28h285zM464 411h-24l-28 32l40 287l33 28l24 -29zM411 30l-32 -28l-24 28l46 327l37 32h23zM419 400l-32 -28h-286l-24 28l31 28h287z" />
<glyph unicode="b" d="M44 70l-63 -55l53 374h23l28 -32zM97 443l-37 -32h-23l52 374l48 -55zM472 772l-31 -28h-287l-48 56h343zM469 443l-32 -28l-24 28l41 287l31 27l24 -27zM420 400l-32 -28h-286l-24 28l31 28h287zM416 70l-31 -27l-24 27l40 287l32 28l24 -28zM368 28l-32 -28h-342l63 56 h287z" />
<glyph unicode="c" d="M497 673l-32 -28l-24 28l8 57l32 27l24 -27zM468 772l-32 -28h-285l-24 28l31 28h286zM93 443l-36 -32h-24l45 319l32 27l24 -27zM41 70l-32 -27l-24 27l45 319h24l27 -32zM363 28l-31 -28h-286l-24 28l32 28h285zM412 70l-32 -27l-24 27l8 57l32 28l24 -28z" />
<glyph unicode="d" d="M44 70l-63 -55l53 374h23l28 -32zM97 443l-37 -32h-24l53 374l48 -55zM472 772l-31 -28h-287l-48 56h343zM464 411h-23l-28 32l41 287l31 27l24 -27zM416 70l-31 -27l-24 27l40 287l37 32h23zM368 28l-32 -28h-342l63 56h287z" />
<glyph unicode="e" d="M486 772l-31 -28h-286l-24 28l32 28h285zM112 443l-37 -32h-23l44 319l32 27l24 -27zM373 400l-32 -28h-226l-23 28l31 28h226zM59 70l-31 -27l-24 27l45 319h23l28 -32zM382 28l-32 -28h-286l-24 28l32 28h286z" />
<glyph unicode="f" d="M489 772l-31 -28h-286l-24 28l32 28h285zM115 443l-37 -32h-23l44 319l32 27l24 -27zM376 400l-32 -28h-226l-23 28l31 28h226zM56 28l-31 -28l-24 28l51 361h23l28 -32z" />
<glyph unicode="g" d="M486 772l-31 -28h-286l-24 28l32 28h285zM112 443l-37 -32h-23l44 319l32 27l24 -27zM59 70l-31 -27l-24 27l45 319h23l28 -32zM382 28l-32 -28h-286l-24 28l32 28h286zM430 70l-31 -27l-24 27l40 287l63 56zM466 428l-64 -56h-101l-23 28l31 28h157z" />
<glyph unicode="h" d="M460 411h-24l-27 32l46 327l31 28l24 -28zM93 443l-36 -32h-24l51 359l31 28l24 -28zM416 400l-32 -28h-287l-24 28l32 28h287zM406 30l-31 -28l-24 28l46 327l36 32h24zM35 30l-31 -28l-24 28l50 359h24l27 -32z" />
<glyph unicode="i" d="M279 443l-32 -28l-24 28l46 327l32 28l24 -28zM221 30l-32 -28l-24 28l46 327l32 28l24 -28z" />
<glyph unicode="j" d="M457 411h-23l-28 32l47 329l31 28l24 -28zM410 70l-32 -27l-24 27l40 287l37 32h23zM360 28l-32 -28h-286l-24 28l32 28h286zM37 70l-31 -27l-24 27l8 57l31 28l24 -28z" />
<glyph unicode="k" d="M506 755l-226 -344h-32l-17 19l242 370h39zM91 443l-36 -32h-24l51 359l31 28l24 -28zM227 400l-31 -28h-101l-24 28l32 28h101zM400 0h-40l-138 370l23 19h32l129 -344zM33 30l-32 -28l-23 28l50 359h24l27 -32z" />
<glyph unicode="l" d="M164 443l-37 -32h-23l50 359l32 28l24 -28zM112 70l-32 -27l-24 27l45 319h23l28 -32zM434 28l-32 -28h-285l-24 28l31 28h286z" />
<glyph unicode="m" d="M461 411h-24l-27 32l46 329l32 28l24 -28zM411 607l-128 -196h-27l10 71l160 243h2zM235 411h-26l-73 196l16 118h2l91 -243zM92 443l-36 -32h-24l51 361l32 28l24 -28zM407 28l-32 -28l-24 28l47 329l36 32h24zM34 28l-32 -28l-24 28l51 361h24l27 -32z" />
<glyph unicode="n" d="M35 30l-31 -28l-24 28l50 359h24l27 -32zM93 443l-36 -32h-24l51 359l31 28l24 -28zM388 449h-41l-200 233l6 41h37l204 -237zM460 411h-24l-27 32l46 327l31 28l24 -28zM406 30l-31 -28l-24 28l46 327l36 32h24z" />
<glyph unicode="o" d="M41 70l-32 -27l-24 27l45 319h24l27 -32zM93 443l-36 -32h-24l45 319l32 27l24 -27zM468 772l-32 -28h-285l-24 28l31 28h286zM460 411h-24l-27 32l40 287l32 27l24 -27zM412 70l-32 -27l-24 27l41 287l36 32h24zM363 28l-31 -28h-286l-24 28l32 28h285z" />
<glyph unicode="p" d="M468 443l-31 -28l-24 28l40 287l32 27l24 -27zM472 772l-32 -28h-287l-47 56h342zM96 443l-37 -32h-23l53 374l47 -55zM420 400l-32 -28h-287l-24 28l32 28h287zM37 30l-32 -28l-24 28l51 359h23l28 -32z" />
<glyph unicode="q" d="M41 70l-32 -27l-24 27l45 319h24l27 -32zM93 443l-36 -32h-24l45 319l32 27l24 -27zM468 772l-32 -28h-285l-24 28l31 28h286zM460 411h-24l-27 32l40 287l32 27l24 -27zM412 70l-32 -27l-24 27l41 287l36 32h24zM363 28l-31 -28h-286l-24 28l32 28h285zM336 91l-70 133 l18 127l68 -149z" />
<glyph unicode="r" d="M468 443l-31 -28l-24 28l40 287l32 27l24 -27zM472 772l-32 -28h-287l-47 56h342zM96 443l-37 -32h-23l53 374l47 -55zM420 400l-32 -28h-287l-24 28l32 28h287zM406 0h-41l-266 310l5 41h38l269 -313zM37 30l-32 -28l-24 28l51 359h23l28 -32z" />
<glyph unicode="s" d="M497 673l-31 -28l-24 28l8 57l31 27l24 -27zM469 772l-32 -28h-286l-24 28l32 28h286zM94 443l-32 -28l-24 28l41 287l31 27l24 -27zM416 400l-31 -28h-287l-24 28l31 28h287zM413 70l-32 -27l-24 27l40 287l32 28l24 -28zM363 28l-32 -28h-286l-24 28l32 28h286zM40 70 l-31 -27l-24 27l8 57l31 28l24 -28z" />
<glyph unicode="t" d="M446 772l-32 -28h-131l-36 43l-48 -43h-131l-24 28l32 28h346zM226 443l-32 -28l-24 28l41 287l31 27l24 -27zM168 30l-32 -28l-24 28l46 327l32 28l24 -28z" />
<glyph unicode="u" d="M90 443l-36 -32h-24l51 359l32 28l23 -28zM38 70l-32 -27l-23 27l44 319h24l27 -32zM360 28l-31 -28h-286l-24 28l32 28h286zM409 70l-32 -27l-23 27l40 287l37 32h23zM457 411h-24l-27 32l46 327l32 28l23 -28z" />
<glyph unicode="v" d="M438 411h-38l-13 31l46 328l32 28l24 -28zM72 442l-22 -31h-38l50 359l32 28l24 -28zM429 345l-226 -345h-26l10 71l209 318h39zM156 0h-26l-129 345l7 44h39l119 -318z" />
<glyph unicode="w" d="M461 411h-24l-27 32l46 329l32 28l24 -28zM93 443l-37 -32h-24l51 361l32 28l24 -28zM407 28l-32 -28l-24 28l47 329l36 32h24zM337 75h-3l-90 243l9 71h27l73 -196zM222 318l-159 -243h-2l16 118l129 196h26zM34 28l-32 -28l-24 28l51 361h24l27 -32z" />
<glyph unicode="x" d="M509 755l-226 -345h-26l10 71l209 319h39zM236 410h-26l-129 345l6 45h40l119 -319zM403 0h-40l-119 319l10 70h26l129 -344zM223 319l-209 -319h-39l6 45l226 344h26z" />
<glyph unicode="y" d="M456 755l-226 -346h-26l10 71l209 320h40zM183 409h-26l-130 346l7 45h39l120 -320zM167 28l-31 -28l-24 28l46 328l32 28l24 -28z" />
<glyph unicode="z" d="M469 772l-32 -28h-286l-24 28l32 28h286zM411 606l-128 -196h-26l10 71l158 242h3zM223 319l-158 -242h-3l17 117l128 195h26zM364 28l-32 -28h-287l-24 28l32 28h287z" />
<glyph unicode="|" d="M279 443l-32 -28l-24 28l50 357l32 28l24 -28zM217 0l-32 -28l-24 28l50 357l32 28l24 -28z" />
<glyph unicode="&#xa0;" />
<glyph unicode="&#x2010;" d="M416 400l-31 -28h-287l-24 28l31 28h287z" />
<glyph unicode="&#x25fc;" horiz-adv-x="800" d="M0 800h800v-800h-800v800z" />
</font>
</defs>
</svg>
